<svg width="60" height="60" viewBox="0 0 60 60" fill="none" xmlns="http://www.w3.org/2000/svg">
<rect width="60" height="60" rx="13.28" fill="#D8D6CC"/>
<path d="M26 49.2139C15.7207 49.2139 7.38965 40.8828 7.38965 30.6035C7.38965 20.3242 15.7207 11.9932 26 11.9932C36.2793 11.9932 44.6104 20.3242 44.6104 30.6035C44.6104 40.8828 36.2793 49.2139 26 49.2139ZM26 36.8193C31.8447 36.8193 36.2607 39.1572 37.9863 41.5137C40.6025 38.6377 42.2168 34.8154 42.2168 30.6035C42.2168 21.6416 34.9619 14.3867 26 14.3867C17.0381 14.3867 9.80176 21.6416 9.80176 30.6035C9.80176 34.7969 11.3789 38.6191 13.9951 41.4951C15.7393 39.1572 20.1553 36.8193 26 36.8193ZM26 33.6465C22.4375 33.6094 19.6914 30.6221 19.6729 26.6514C19.6543 22.9219 22.4746 19.8047 26 19.8047C29.5254 19.8047 32.3271 22.9219 32.3271 26.6514C32.3271 30.6221 29.5625 33.665 26 33.6465Z" fill="#A9A29A"/>
<g clip-path="url(#clip0_4503_560)">
<g filter="url(#filter0_i_4503_560)">
<rect x="49" y="45" width="11" height="15" fill="#4CD964"/>
</g>
<g filter="url(#filter1_i_4503_560)">
<rect x="49" y="30" width="11" height="15" fill="#FF9500"/>
</g>
<g filter="url(#filter2_i_4503_560)">
<rect x="49" y="15" width="11" height="15" fill="#5AC8FA"/>
</g>
<g filter="url(#filter3_i_4503_560)">
<rect x="49" width="11" height="15" fill="#C4C2BA"/>
</g>
</g>
<defs>
<filter id="filter0_i_4503_560" x="49" y="45" width="13" height="17" filterUnits="userSpaceOnUse" color-interpolation-filters="sRGB">
<feFlood flood-opacity="0" result="BackgroundImageFix"/>
<feBlend mode="normal" in="SourceGraphic" in2="BackgroundImageFix" result="shape"/>
<feColorMatrix in="SourceAlpha" type="matrix" values="0 0 0 0 0 0 0 0 0 0 0 0 0 0 0 0 0 0 127 0" result="hardAlpha"/>
<feOffset dx="2" dy="2"/>
<feGaussianBlur stdDeviation="2"/>
<feComposite in2="hardAlpha" operator="arithmetic" k2="-1" k3="1"/>
<feColorMatrix type="matrix" values="0 0 0 0 0.116944 0 0 0 0 0.30319 0 0 0 0 0.0433122 0 0 0 0.25 0"/>
<feBlend mode="normal" in2="shape" result="effect1_innerShadow_4503_560"/>
</filter>
<filter id="filter1_i_4503_560" x="49" y="30" width="13" height="17" filterUnits="userSpaceOnUse" color-interpolation-filters="sRGB">
<feFlood flood-opacity="0" result="BackgroundImageFix"/>
<feBlend mode="normal" in="SourceGraphic" in2="BackgroundImageFix" result="shape"/>
<feColorMatrix in="SourceAlpha" type="matrix" values="0 0 0 0 0 0 0 0 0 0 0 0 0 0 0 0 0 0 127 0" result="hardAlpha"/>
<feOffset dx="2" dy="2"/>
<feGaussianBlur stdDeviation="2"/>
<feComposite in2="hardAlpha" operator="arithmetic" k2="-1" k3="1"/>
<feColorMatrix type="matrix" values="0 0 0 0 0.27181 0 0 0 0 0.177426 0 0 0 0 0.0620686 0 0 0 0.25 0"/>
<feBlend mode="normal" in2="shape" result="effect1_innerShadow_4503_560"/>
</filter>
<filter id="filter2_i_4503_560" x="49" y="15" width="13" height="17" filterUnits="userSpaceOnUse" color-interpolation-filters="sRGB">
<feFlood flood-opacity="0" result="BackgroundImageFix"/>
<feBlend mode="normal" in="SourceGraphic" in2="BackgroundImageFix" result="shape"/>
<feColorMatrix in="SourceAlpha" type="matrix" values="0 0 0 0 0 0 0 0 0 0 0 0 0 0 0 0 0 0 127 0" result="hardAlpha"/>
<feOffset dx="2" dy="2"/>
<feGaussianBlur stdDeviation="2"/>
<feComposite in2="hardAlpha" operator="arithmetic" k2="-1" k3="1"/>
<feColorMatrix type="matrix" values="0 0 0 0 0.29111 0 0 0 0 0.378574 0 0 0 0 0.441048 0 0 0 0.25 0"/>
<feBlend mode="normal" in2="shape" result="effect1_innerShadow_4503_560"/>
</filter>
<filter id="filter3_i_4503_560" x="49" y="0" width="13" height="17" filterUnits="userSpaceOnUse" color-interpolation-filters="sRGB">
<feFlood flood-opacity="0" result="BackgroundImageFix"/>
<feBlend mode="normal" in="SourceGraphic" in2="BackgroundImageFix" result="shape"/>
<feColorMatrix in="SourceAlpha" type="matrix" values="0 0 0 0 0 0 0 0 0 0 0 0 0 0 0 0 0 0 127 0" result="hardAlpha"/>
<feOffset dx="2" dy="2"/>
<feGaussianBlur stdDeviation="2"/>
<feComposite in2="hardAlpha" operator="arithmetic" k2="-1" k3="1"/>
<feColorMatrix type="matrix" values="0 0 0 0 0 0 0 0 0 0 0 0 0 0 0 0 0 0 0.25 0"/>
<feBlend mode="normal" in2="shape" result="effect1_innerShadow_4503_560"/>
</filter>
<clipPath id="clip0_4503_560">
<rect width="11" height="60" fill="white" transform="translate(49)"/>
</clipPath>
</defs>
</svg>
