<svg width="60" height="60" viewBox="0 0 60 60" fill="none" xmlns="http://www.w3.org/2000/svg">
<g clip-path="url(#clip0_4503_3292)">
<rect width="60" height="60" fill="white"/>
<g style="mix-blend-mode:multiply">
<rect x="22" y="4" width="16" height="24.3333" rx="8" fill="url(#paint0_linear_4503_3292)"/>
</g>
<g style="mix-blend-mode:multiply">
<rect x="22" y="31.6667" width="16" height="24.3333" rx="8" fill="url(#paint1_linear_4503_3292)"/>
</g>
<g style="mix-blend-mode:multiply">
<rect x="4" y="38" width="16" height="24.3333" rx="8" transform="rotate(-90 4 38)" fill="url(#paint2_linear_4503_3292)"/>
</g>
<g style="mix-blend-mode:multiply">
<rect x="31.6667" y="38" width="16" height="24.3333" rx="8" transform="rotate(-90 31.6667 38)" fill="url(#paint3_linear_4503_3292)"/>
</g>
<g style="mix-blend-mode:multiply">
<rect x="5.9585" y="17.2722" width="16" height="24.3333" rx="8" transform="rotate(-45 5.9585 17.2722)" fill="url(#paint4_linear_4503_3292)"/>
</g>
<g style="mix-blend-mode:multiply">
<rect x="25.5217" y="36.8354" width="16" height="24.3333" rx="8" transform="rotate(-45 25.5217 36.8354)" fill="url(#paint5_linear_4503_3292)"/>
</g>
<g style="mix-blend-mode:multiply">
<rect x="42.728" y="5.9585" width="16" height="24.3333" rx="8" transform="rotate(45 42.728 5.9585)" fill="url(#paint6_linear_4503_3292)"/>
</g>
<g style="mix-blend-mode:multiply">
<rect x="23.1648" y="25.5217" width="16" height="24.3333" rx="8" transform="rotate(45 23.1648 25.5217)" fill="url(#paint7_linear_4503_3292)"/>
</g>
<g style="mix-blend-mode:multiply" opacity="0.7">
<path d="M28.1083 28.1085C25.2094 27.4057 22.9276 25.1239 22.2249 22.2251C25.1237 22.9279 27.4055 25.2097 28.1083 28.1085Z" fill="url(#paint8_linear_4503_3292)"/>
</g>
<g style="mix-blend-mode:multiply" opacity="0.7">
<path d="M28.1083 31.8916C27.4055 34.7904 25.1237 37.0722 22.2249 37.775C22.9276 34.8762 25.2094 32.5944 28.1083 31.8916Z" fill="url(#paint9_linear_4503_3292)"/>
</g>
<g style="mix-blend-mode:multiply" opacity="0.7">
<path d="M37.775 22.2251C37.0722 25.1239 34.7904 27.4057 31.8916 28.1085C32.5944 25.2097 34.8762 22.9279 37.775 22.2251Z" fill="url(#paint10_linear_4503_3292)"/>
</g>
<g style="mix-blend-mode:multiply" opacity="0.7">
<path d="M37.775 37.775C34.8762 37.0722 32.5944 34.7904 31.8916 31.8916C34.7904 32.5944 37.0722 34.8762 37.775 37.775Z" fill="url(#paint11_linear_4503_3292)"/>
</g>
<g style="mix-blend-mode:multiply" opacity="0.7">
<path d="M27.3248 30.0001C24.7781 31.5529 21.5511 31.5529 19.0044 30.0001C21.5511 28.4472 24.7781 28.4472 27.3248 30.0001Z" fill="url(#paint12_linear_4503_3292)"/>
</g>
<g style="mix-blend-mode:multiply" opacity="0.7">
<path d="M29.9999 27.3249C28.447 24.7781 28.447 21.5511 29.9998 19.0044C31.5527 21.5511 31.5527 24.7781 29.9999 27.3249Z" fill="url(#paint13_linear_4503_3292)"/>
</g>
<g style="mix-blend-mode:multiply" opacity="0.7">
<path d="M40.9955 30.0001C38.4487 31.5529 35.2218 31.5529 32.675 30.0001C35.2218 28.4472 38.4487 28.4472 40.9955 30.0001Z" fill="url(#paint14_linear_4503_3292)"/>
</g>
<g style="mix-blend-mode:multiply" opacity="0.7">
<path d="M29.9998 32.6753C31.5527 35.222 31.5527 38.449 29.9998 40.9957C28.447 38.449 28.447 35.222 29.9998 32.6753Z" fill="url(#paint15_linear_4503_3292)"/>
</g>
</g>
<defs>
<linearGradient id="paint0_linear_4503_3292" x1="30" y1="4" x2="30" y2="28.3333" gradientUnits="userSpaceOnUse">
<stop stop-color="#F69B35"/>
<stop offset="1" stop-color="#FFE51C"/>
</linearGradient>
<linearGradient id="paint1_linear_4503_3292" x1="30" y1="31.6667" x2="30" y2="56.0001" gradientUnits="userSpaceOnUse">
<stop stop-color="#897FBB"/>
<stop offset="1" stop-color="#5DAFE5"/>
</linearGradient>
<linearGradient id="paint2_linear_4503_3292" x1="12" y1="38" x2="12" y2="62.3333" gradientUnits="userSpaceOnUse">
<stop offset="0.0001" stop-color="#CC8BBD"/>
<stop offset="1" stop-color="#EE585F"/>
</linearGradient>
<linearGradient id="paint3_linear_4503_3292" x1="39.6667" y1="38" x2="39.6667" y2="62.3333" gradientUnits="userSpaceOnUse">
<stop stop-color="#67C17F"/>
<stop offset="1" stop-color="#C7D942"/>
</linearGradient>
<linearGradient id="paint4_linear_4503_3292" x1="13.9585" y1="17.2722" x2="13.9585" y2="41.6055" gradientUnits="userSpaceOnUse">
<stop stop-color="#F25D69"/>
<stop offset="1" stop-color="#F6933F"/>
</linearGradient>
<linearGradient id="paint5_linear_4503_3292" x1="33.5217" y1="36.8354" x2="33.5217" y2="61.1688" gradientUnits="userSpaceOnUse">
<stop stop-color="#65B8E5"/>
<stop offset="1" stop-color="#68C181"/>
</linearGradient>
<linearGradient id="paint6_linear_4503_3292" x1="50.728" y1="5.9585" x2="50.728" y2="30.2918" gradientUnits="userSpaceOnUse">
<stop stop-color="#FAE417"/>
<stop offset="1" stop-color="#C9DB41"/>
</linearGradient>
<linearGradient id="paint7_linear_4503_3292" x1="31.1648" y1="25.5217" x2="31.1648" y2="49.8551" gradientUnits="userSpaceOnUse">
<stop stop-color="#CC8BBD"/>
<stop offset="1" stop-color="#9A90C4"/>
</linearGradient>
<linearGradient id="paint8_linear_4503_3292" x1="3.99992" y1="30.0001" x2="28.3333" y2="30.0001" gradientUnits="userSpaceOnUse">
<stop offset="0.0001" stop-color="#CC8BBD"/>
<stop offset="1" stop-color="#EE585F"/>
</linearGradient>
<linearGradient id="paint9_linear_4503_3292" x1="3.99992" y1="30" x2="28.3333" y2="30" gradientUnits="userSpaceOnUse">
<stop offset="0.0001" stop-color="#CC8BBD"/>
<stop offset="1" stop-color="#EE585F"/>
</linearGradient>
<linearGradient id="paint10_linear_4503_3292" x1="31.6667" y1="30.0001" x2="56" y2="30.0001" gradientUnits="userSpaceOnUse">
<stop stop-color="#67C17F"/>
<stop offset="1" stop-color="#C7D942"/>
</linearGradient>
<linearGradient id="paint11_linear_4503_3292" x1="31.6667" y1="30" x2="56" y2="30" gradientUnits="userSpaceOnUse">
<stop stop-color="#67C17F"/>
<stop offset="1" stop-color="#C7D942"/>
</linearGradient>
<linearGradient id="paint12_linear_4503_3292" x1="28.8215" y1="31.1786" x2="11.6152" y2="48.3849" gradientUnits="userSpaceOnUse">
<stop stop-color="#CC8BBD"/>
<stop offset="1" stop-color="#9A90C4"/>
</linearGradient>
<linearGradient id="paint13_linear_4503_3292" x1="11.6151" y1="11.6152" x2="28.8214" y2="28.8215" gradientUnits="userSpaceOnUse">
<stop stop-color="#F25D69"/>
<stop offset="1" stop-color="#F6933F"/>
</linearGradient>
<linearGradient id="paint14_linear_4503_3292" x1="48.3846" y1="11.6153" x2="31.1784" y2="28.8216" gradientUnits="userSpaceOnUse">
<stop stop-color="#FAE417"/>
<stop offset="1" stop-color="#C9DB41"/>
</linearGradient>
<linearGradient id="paint15_linear_4503_3292" x1="28.8213" y1="31.1787" x2="11.6151" y2="48.3849" gradientUnits="userSpaceOnUse">
<stop stop-color="#CC8BBD"/>
<stop offset="1" stop-color="#9A90C4"/>
</linearGradient>
<clipPath id="clip0_4503_3292">
<rect width="60" height="60" rx="13.28" fill="white"/>
</clipPath>
</defs>
</svg>
