<svg width="60" height="60" viewBox="0 0 60 60" fill="none" xmlns="http://www.w3.org/2000/svg">
<g clip-path="url(#clip0_4503_476)">
<rect x="30.1672" y="45.7708" width="29.93" height="14.3266" fill="#FFCC00"/>
<rect width="60.0973" height="45.3092" fill="url(#paint0_linear_4503_476)"/>
<rect y="22.3591" width="15.8364" height="37.7382" fill="#F082CA"/>
<g clip-path="url(#clip1_4503_476)">
<circle cx="60.8545" cy="-0.873631" r="18.8109" stroke="white" stroke-width="10.0169"/>
<path fill-rule="evenodd" clip-rule="evenodd" d="M60.8546 14.1314C69.1416 14.1314 75.8595 7.41343 75.8595 -0.873598C75.8595 -9.16063 69.1416 -15.8786 60.8546 -15.8786C52.5675 -15.8786 45.8496 -9.16063 45.8496 -0.873598C45.8496 7.41343 52.5675 14.1314 60.8546 14.1314ZM60.8546 21.781C73.3663 21.781 83.5092 11.6382 83.5092 -0.873598C83.5092 -13.3854 73.3663 -23.5282 60.8546 -23.5282C48.3428 -23.5282 38.2 -13.3854 38.2 -0.873598C38.2 11.6382 48.3428 21.781 60.8546 21.781Z" fill="#D2D1D6"/>
</g>
<path d="M31.8517 -0.820312H13.4532V12.9837C13.4532 13.7159 12.6476 14.162 12.027 13.7735L0.265394 6.41107L-7.85156 18.4875L56.2326 60.9863L64.3495 48.5583L31.8517 26.7662V-0.820312Z" fill="#F2F1F6"/>
<path d="M16.3066 -1.74707H22.5963H28.8861V29.8179H16.3066V-1.74707Z" fill="url(#paint1_linear_4503_476)"/>
<path d="M13.7441 30.2795H22.6546H31.565V60.0974H13.7441V30.2795Z" fill="#EEF0F6"/>
<g filter="url(#filter0_d_4503_476)">
<circle cx="22.48" cy="37.3845" r="13.8607" fill="url(#paint2_linear_4503_476)" stroke="white" stroke-width="2.32952"/>
<path d="M24.134 28.9041C23.6511 27.6348 21.7704 27.6348 21.2875 28.9041L15.9486 43.4871C15.6086 44.4157 16.7586 45.1646 17.4704 44.4782L22.3873 39.7369C22.5678 39.5629 22.8537 39.5629 23.0341 39.7369L27.951 44.4782C28.6628 45.1646 29.8128 44.4156 29.4728 43.4871L24.134 28.9041Z" fill="white"/>
</g>
</g>
<defs>
<filter id="filter0_d_4503_476" x="0.466024" y="17.1177" width="44.0279" height="44.0279" filterUnits="userSpaceOnUse" color-interpolation-filters="sRGB">
<feFlood flood-opacity="0" result="BackgroundImageFix"/>
<feColorMatrix in="SourceAlpha" type="matrix" values="0 0 0 0 0 0 0 0 0 0 0 0 0 0 0 0 0 0 127 0" result="hardAlpha"/>
<feOffset dy="1.74714"/>
<feGaussianBlur stdDeviation="3.49428"/>
<feComposite in2="hardAlpha" operator="out"/>
<feColorMatrix type="matrix" values="0 0 0 0 0 0 0 0 0 0 0 0 0 0 0 0 0 0 0.25 0"/>
<feBlend mode="normal" in2="BackgroundImageFix" result="effect1_dropShadow_4503_476"/>
<feBlend mode="normal" in="SourceGraphic" in2="effect1_dropShadow_4503_476" result="shape"/>
</filter>
<linearGradient id="paint0_linear_4503_476" x1="30.0487" y1="0" x2="30.0487" y2="45.3092" gradientUnits="userSpaceOnUse">
<stop stop-color="#7FED7D"/>
<stop offset="1" stop-color="#2ED058"/>
</linearGradient>
<linearGradient id="paint1_linear_4503_476" x1="22.5963" y1="-1.74707" x2="22.5963" y2="29.8179" gradientUnits="userSpaceOnUse">
<stop stop-color="#0C91FF"/>
<stop offset="1" stop-color="#0077F7"/>
</linearGradient>
<linearGradient id="paint2_linear_4503_476" x1="22.48" y1="22.3591" x2="22.48" y2="52.41" gradientUnits="userSpaceOnUse">
<stop stop-color="#0C91FF"/>
<stop offset="1" stop-color="#017AFF"/>
</linearGradient>
<clipPath id="clip0_4503_476">
<rect width="60" height="60" rx="13.28" fill="white"/>
</clipPath>
<clipPath id="clip1_4503_476">
<rect x="37.0352" width="23.0623" height="23.8776" fill="white"/>
</clipPath>
</defs>
</svg>
