<svg width="60" height="60" viewBox="0 0 60 60" fill="none" xmlns="http://www.w3.org/2000/svg">
<g clip-path="url(#clip0_4503_2955)">
<rect width="60" height="60" fill="url(#paint0_linear_4503_2955)"/>
<path fill-rule="evenodd" clip-rule="evenodd" d="M42.8334 46.9744C43.5698 48.2498 45.2007 48.6868 46.4762 47.9505C47.7516 47.2141 48.1886 45.5832 47.4522 44.3077L44.7727 39.6667H48.6667C50.1395 39.6667 51.3334 38.4728 51.3334 37C51.3334 35.5272 50.1395 34.3333 48.6667 34.3333H41.6935L33.9996 21.007C32.7097 22.7751 31.3379 25.0192 31.8353 27.9251L42.8334 46.9744ZM26.9208 19.413L24.1668 14.6428C23.4304 13.3673 23.8674 11.7364 25.1428 11C26.4183 10.2637 28.0492 10.7007 28.7856 11.9761L30.0001 14.0797L31.2145 11.9761C31.9509 10.7007 33.5818 10.2637 34.8573 11C36.1327 11.7364 36.5697 13.3673 35.8333 14.6428L24.465 34.3333H33.1362C34.7221 34.8776 36 36.6635 36 38.3333C36 38.7234 35.9076 39.1809 35.7564 39.6667H11.3334C9.86066 39.6667 8.66675 38.4728 8.66675 37C8.66675 35.5272 9.86066 34.3333 11.3334 34.3333H18.3066L26.9208 19.413ZM16.6667 40.6667C17.7941 40.6667 18.8023 41.2625 19.8929 42.2525L17.1667 46.9744C16.4303 48.2498 14.7994 48.6868 13.5239 47.9505C12.2485 47.2141 11.8115 45.5832 12.5479 44.3077L14.4678 40.9823C14.993 40.8216 15.284 40.7427 15.5803 40.704C15.866 40.6667 16.1565 40.6667 16.6667 40.6667Z" fill="white"/>
</g>
<defs>
<linearGradient id="paint0_linear_4503_2955" x1="30" y1="0" x2="30" y2="60" gradientUnits="userSpaceOnUse">
<stop stop-color="#15C7FA"/>
<stop offset="1" stop-color="#216FF0"/>
</linearGradient>
<clipPath id="clip0_4503_2955">
<rect width="60" height="60" rx="13.28" fill="white"/>
</clipPath>
</defs>
</svg>
