<svg width="375" height="366" viewBox="0 0 375 366" fill="none" xmlns="http://www.w3.org/2000/svg">
<mask id="mask0_2010_285" style="mask-type:luminance" maskUnits="userSpaceOnUse" x="0" y="0" width="375" height="366">
<path d="M0 0H375V365.16H0V0Z" fill="white"/>
</mask>
<g mask="url(#mask0_2010_285)">
<mask id="mask1_2010_285" style="mask-type:luminance" maskUnits="userSpaceOnUse" x="0" y="0" width="375" height="366">
<path d="M0 0H375V365.16H0V0Z" fill="white"/>
</mask>
<g mask="url(#mask1_2010_285)">
<path d="M186.328 365.16L349.219 273.87L186.328 182.58L23.438 273.87L186.328 365.16Z" fill="url(#paint0_linear_2010_285)"/>
<path d="M349.219 273.87V91.2901L186.328 0V182.58L349.219 273.87Z" fill="url(#paint1_linear_2010_285)"/>
<path d="M186.328 0L23.438 91.2901V273.87L186.328 182.58V0Z" fill="url(#paint2_linear_2010_285)"/>
<path d="M349.219 91.29L186.328 365.16V182.58L349.219 91.29Z" fill="#E3E3E3"/>
<path d="M349.219 91.29L186.328 182.58L23.438 91.29H349.219Z" fill="white"/>
</g>
</g>
<defs>
<linearGradient id="paint0_linear_2010_285" x1="186.328" y1="182.58" x2="186.328" y2="365.16" gradientUnits="userSpaceOnUse">
<stop offset="0.16" stop-color="white" stop-opacity="0.39"/>
<stop offset="0.658" stop-color="white" stop-opacity="0.8"/>
</linearGradient>
<linearGradient id="paint1_linear_2010_285" x1="349.219" y1="91.8531" x2="188.573" y2="188.59" gradientUnits="userSpaceOnUse">
<stop offset="0.182" stop-color="white" stop-opacity="0.31"/>
<stop offset="0.715" stop-color="white" stop-opacity="0"/>
</linearGradient>
<linearGradient id="paint2_linear_2010_285" x1="186.328" y1="4.66376e-06" x2="29.8381" y2="277.48" gradientUnits="userSpaceOnUse">
<stop stop-color="white" stop-opacity="0.6"/>
<stop offset="0.667" stop-color="white" stop-opacity="0.22"/>
</linearGradient>
</defs>
</svg>
