<svg width="39" height="43" viewBox="0 0 39 43" fill="none" xmlns="http://www.w3.org/2000/svg">
<g clip-path="url(#clip0_1514_336)">
<path d="M13.8751 9.23767C12.8115 9.01013 11.5919 8.87934 10.3403 8.87934C9.00723 8.87934 7.70605 9.02805 6.45627 9.30934L6.57505 9.28784C4.70305 9.66051 3.14482 10.7893 2.19464 12.3373L2.17868 12.3659C1.66636 13.2367 1.36323 14.2848 1.36323 15.4046C1.36323 15.7199 1.38805 16.0299 1.43414 16.3327L1.43059 16.2986C1.67877 18.033 2.24959 19.5899 3.081 20.9713L3.05086 20.9175C3.10759 21.0071 3.18027 21.0806 3.26536 21.1343L3.26891 21.1361C3.35223 21.1827 3.4515 21.2096 3.55609 21.2096H3.58446H3.58268C3.72627 21.2042 3.85568 21.1397 3.94609 21.0394C4.04714 20.948 4.11096 20.819 4.1145 20.6739C4.1145 20.6703 4.1145 20.6685 4.1145 20.6649C4.1145 20.6076 4.10564 20.552 4.08968 20.5001L4.09145 20.5037C4.07727 20.4678 4.06841 20.4266 4.06664 20.3818C3.33982 19.2047 2.81332 17.8215 2.57577 16.3416L2.56691 16.2771C2.52614 16.0317 2.50132 15.7486 2.50132 15.4601C2.50132 14.5392 2.74241 13.6756 3.16432 12.9303L3.15191 12.9554C4.02764 11.6116 5.4015 10.662 7.00227 10.37L7.03773 10.3646C8.03046 10.146 9.16855 10.0206 10.3368 10.0206C11.505 10.0206 12.6449 10.146 13.7422 10.3843L13.6358 10.3646H13.6429C13.6677 10.3646 13.6908 10.3736 13.7085 10.3897L13.7333 10.4148H13.744C13.9017 10.4148 14.0418 10.3503 14.1446 10.2446C14.2492 10.1407 14.313 9.99555 14.313 9.83609C14.313 9.83251 14.313 9.83071 14.313 9.82892C14.313 9.81996 14.313 9.80921 14.313 9.79846C14.313 9.6623 14.2669 9.53688 14.1907 9.43655L14.1925 9.43834C14.1127 9.34338 14.0045 9.2753 13.8822 9.24484H13.8787L13.8751 9.23767ZM5.94573 24.8735C7.1565 26.1618 8.43464 27.3514 9.78546 28.4551L9.85991 28.5142C11.1469 29.5659 12.5828 30.5746 14.0896 31.4758L14.2563 31.569C15.9989 32.5903 18.041 33.5613 20.1683 34.3586L20.4502 34.4518C22.1272 35.1004 24.1038 35.6361 26.1477 35.9675L26.3232 35.9908C27.1936 36.1395 28.1952 36.2238 29.2163 36.2238C29.9963 36.2238 30.7639 36.1736 31.5173 36.0786L31.4269 36.0876C32.8983 35.9174 34.2261 35.4211 35.3783 34.6722L35.3411 34.6937C35.4049 34.6292 35.4599 34.5575 35.5077 34.4787L35.5113 34.4733C35.5574 34.398 35.584 34.3067 35.584 34.2099C35.584 34.2081 35.584 34.2063 35.584 34.2063C35.584 34.2045 35.584 34.201 35.584 34.1992C35.584 34.0397 35.5201 33.8946 35.4156 33.7907C35.3127 33.685 35.1691 33.6205 35.0114 33.6205C35.0078 33.6205 35.0061 33.6205 35.0043 33.6205C34.9511 33.6276 34.9032 33.6438 34.8607 33.6706L34.8625 33.6688C34.8075 33.6957 34.7614 33.728 34.7206 33.7674C33.6836 34.4357 32.4462 34.8818 31.1185 35.0108L31.0848 35.0126C30.5193 35.0789 29.8634 35.1165 29.2004 35.1165C28.1757 35.1165 27.1706 35.0269 26.1956 34.8549L26.3002 34.8693C24.2066 34.5145 22.3541 34.0057 20.5796 33.3338L20.7888 33.4037C18.5711 32.5849 16.6743 31.6532 14.8874 30.5585L15.0363 30.6427C13.3486 29.6627 11.9039 28.6683 10.5389 27.5754L10.6133 27.6327C9.2235 26.5219 7.98259 25.3609 6.83741 24.1103L6.81791 24.0888C6.75764 24.0279 6.68496 23.9795 6.60518 23.9473L6.60164 23.9455C6.53782 23.9168 6.46336 23.8989 6.38536 23.8971C6.38359 23.8971 6.37827 23.8971 6.3765 23.8971C6.21873 23.8971 6.07514 23.9616 5.97232 24.0673C5.86773 24.1712 5.80391 24.3163 5.80391 24.4758V24.483C5.80391 24.5546 5.82164 24.6209 5.85355 24.68L5.85177 24.6783L5.94573 24.8735ZM33.9406 24.1408C35.5396 22.3849 36.7806 20.2708 37.534 17.9326L37.5676 17.8126C37.7981 17.1586 37.931 16.4025 37.931 15.616C37.931 14.4425 37.635 13.3388 37.1156 12.3767L37.1333 12.4125C36.4526 11.2497 35.4386 10.3503 34.2243 9.83788L34.1835 9.82355C32.8132 9.23588 31.2195 8.89546 29.5478 8.89546C29.5283 8.89546 29.5088 8.89546 29.4911 8.89546H29.4946C29.4893 8.89546 29.4822 8.89546 29.4751 8.89546C29.328 8.89546 29.1968 8.96176 29.1082 9.06567C29.0195 9.17138 28.9664 9.31113 28.9664 9.46163V9.48313V9.48134V9.50105C28.9664 9.65155 29.0195 9.78951 29.11 9.89701V9.89521C29.1986 10.0009 29.3298 10.0654 29.4769 10.0654H29.4982C29.5868 10.0618 29.6914 10.0618 29.796 10.0618C31.1858 10.0618 32.5136 10.3413 33.7226 10.8484L33.6552 10.8233C34.7082 11.264 35.568 11.9986 36.1566 12.9267L36.169 12.9482C36.5607 13.7222 36.7912 14.6378 36.7912 15.6053C36.7912 16.3345 36.66 17.0332 36.4225 17.68L36.4349 17.6388C35.701 19.873 34.5682 21.7955 33.1128 23.4133L33.1234 23.4008L33.0277 23.5961C32.9976 23.6534 32.9798 23.7197 32.9798 23.7914V23.7985C32.9798 23.958 33.0436 24.1031 33.1482 24.207C33.251 24.3128 33.3946 24.3773 33.5524 24.3773H33.5595H33.5737C33.6588 24.3773 33.7368 24.3504 33.8024 24.3038H33.8006C33.8573 24.2608 33.9194 24.2196 33.9867 24.1855L33.9938 24.182L33.9406 24.1408ZM24.609 9.43476C22.4941 9.9418 20.686 10.5366 18.9469 11.2605L19.1951 11.1691C17.277 11.9574 15.6709 12.769 14.1357 13.6864L14.313 13.5878C12.1999 14.8223 10.3722 16.1392 8.68282 17.6101L8.73068 17.5707C7.17777 18.9091 5.79859 20.3657 4.57364 21.9478L4.524 22.014C3.50823 23.313 2.652 24.8055 2.02623 26.4144L1.98545 26.5326C1.60609 27.4625 1.3845 28.5447 1.3845 29.677C1.3845 30.0515 1.40932 30.4205 1.45541 30.7807L1.45009 30.7377C1.48377 30.872 1.55114 30.9885 1.64332 31.0799C1.73727 31.1695 1.86314 31.2232 2.00318 31.2232H2.03332H2.04218C2.19995 31.2232 2.34177 31.1587 2.44459 31.0548C2.54918 30.9509 2.613 30.8058 2.613 30.6463C2.613 30.6427 2.613 30.6409 2.613 30.6391V30.5424C2.58464 30.2933 2.56868 30.0031 2.56868 29.7093C2.56868 28.6432 2.78318 27.6273 3.17318 26.7046L3.15368 26.7548C3.78655 25.1477 4.59845 23.7591 5.58764 22.5211L5.56459 22.5515C6.79664 20.9964 8.12796 19.6204 9.58159 18.3859L9.62591 18.3501C11.2196 16.9848 12.9888 15.7181 14.8643 14.6127L15.0398 14.5159C16.3055 13.7455 17.7982 12.984 19.3458 12.3301L19.578 12.2441C20.9643 11.6475 22.6413 11.0867 24.3679 10.6567L24.6055 10.6065C24.8093 10.5671 24.9884 10.4811 25.1373 10.3575L25.1355 10.3593C25.2241 10.2643 25.2773 10.1371 25.2773 9.99555C25.2773 9.9848 25.2773 9.97584 25.2773 9.96509V9.96688C25.272 9.82176 25.2082 9.69096 25.1089 9.59959C25.0185 9.49746 24.8909 9.43296 24.7473 9.42938H24.6055L24.609 9.43476ZM11.1203 34.2959C11.9375 36.7684 13.1926 38.8951 14.8076 40.6868L14.7952 40.6725C15.9794 42.0503 17.6971 42.9335 19.6205 42.9927H19.6312C21.0192 42.9783 22.2974 42.5035 23.3202 41.7116L23.306 41.7224C24.5611 40.7603 25.5964 39.576 26.3711 38.2215L26.4012 38.1641C26.426 38.1175 26.4509 38.0602 26.4704 38.0029L26.4739 37.9939C26.4899 37.9455 26.4987 37.89 26.4987 37.8327C26.4987 37.8291 26.4987 37.8255 26.4987 37.8219C26.4987 37.8201 26.4987 37.8165 26.4987 37.8148C26.4987 37.6553 26.4349 37.5102 26.3303 37.4063C26.2275 37.3005 26.0839 37.236 25.9261 37.236C25.9244 37.236 25.9208 37.236 25.919 37.236C25.9173 37.236 25.9173 37.236 25.9155 37.236C25.8198 37.236 25.7294 37.2629 25.6514 37.3113L25.6531 37.3095C25.5645 37.3668 25.4918 37.4403 25.4386 37.5263L25.4369 37.5299C24.7189 38.7912 23.806 39.8537 22.7281 40.7137L22.7051 40.7316C21.8666 41.4017 20.7994 41.812 19.6383 41.8317H19.6347C17.9666 41.7493 16.497 40.9538 15.5078 39.7408L15.5007 39.73C14.079 38.1032 12.964 36.1628 12.2708 34.0308L12.2389 33.9143C12.1698 33.8122 12.09 33.7244 11.9996 33.6473L11.9978 33.6455C11.9092 33.5703 11.794 33.5237 11.6681 33.5237C11.6645 33.5237 11.661 33.5237 11.6592 33.5237C11.5156 33.5291 11.3862 33.5936 11.2958 33.6939C11.1912 33.7978 11.1274 33.943 11.1274 34.1024V34.1096V34.3049L11.1203 34.2959ZM28.525 33.2711C28.9717 31.8754 29.3599 30.193 29.6152 28.4676L29.6365 28.2885C29.8829 26.676 30.0229 24.8162 30.0229 22.9242C30.0229 22.9027 30.0229 22.883 30.0229 22.8615V22.8651V22.5784C30.0229 22.5372 30.0229 22.4906 30.0229 22.4423C30.0229 20.0808 29.812 17.7696 29.4078 15.5282L29.4432 15.7629C29.0568 13.5341 28.486 11.5579 27.729 9.67842L27.7999 9.87551C27.1245 8.1573 26.27 6.6738 25.233 5.34259L25.2614 5.38021C24.4175 4.26401 23.3397 3.36996 22.0988 2.76438L22.0474 2.74109C22.0173 2.71063 21.9765 2.69271 21.9304 2.69271C21.9286 2.69271 21.9269 2.69271 21.9269 2.69271H21.8063C21.801 2.69271 21.7939 2.69271 21.7868 2.69271C21.6379 2.69271 21.5014 2.74646 21.395 2.83784C21.2905 2.92742 21.2284 3.0618 21.2284 3.20871V3.23021V3.24276C21.2284 3.36459 21.2639 3.47926 21.3259 3.57421L21.3241 3.57242C21.3809 3.66201 21.4642 3.73009 21.5617 3.76592L21.5652 3.76771C22.7476 4.35538 23.7297 5.19209 24.476 6.21334L24.492 6.23484C25.4067 7.45317 26.1867 8.84709 26.7717 10.3431L26.8125 10.4614C27.4542 12.056 27.9914 13.9336 28.3335 15.8776L28.3583 16.0514C28.7129 17.972 28.915 20.1812 28.915 22.4387V22.582V22.5748V22.8615V22.8973C28.915 24.7481 28.7749 26.5649 28.5037 28.3368L28.5285 28.1398C28.2395 30.064 27.8354 31.7607 27.3053 33.4001L27.3691 33.1725L27.417 33.0292V33.0776V33.0848C27.417 33.2442 27.4808 33.3893 27.5854 33.4933C27.6882 33.599 27.8318 33.6635 27.9896 33.6635H27.9967H28.0056C28.1314 33.6635 28.2466 33.6169 28.337 33.5416C28.4221 33.4753 28.4877 33.3875 28.5285 33.2872L28.5303 33.2836L28.525 33.2711ZM39.2588 32.6834C39.2588 32.6727 39.2588 32.6601 39.2588 32.6476C39.2588 31.904 38.9539 31.2322 38.4629 30.752C37.9789 30.2539 37.307 29.9458 36.5625 29.9458C36.5412 29.9458 36.5217 29.9458 36.5005 29.9458H36.504C36.4934 29.9458 36.4827 29.9458 36.4703 29.9458C35.7329 29.9458 35.0681 30.2557 34.5948 30.752C34.1037 31.2322 33.7971 31.904 33.7971 32.6476V32.6852V32.7408C33.7971 33.4933 34.102 34.1741 34.5948 34.6614C35.0699 35.1595 35.7346 35.4695 36.4721 35.4695H36.5075H36.5643C37.3088 35.4695 37.9807 35.1613 38.4646 34.6632C38.9557 34.1741 39.2606 33.495 39.2606 32.7443C39.2606 32.7228 39.2606 32.6995 39.2606 32.678V32.6816L39.2588 32.6834ZM38.0977 32.6834V32.7193C38.0977 33.1546 37.9222 33.547 37.6385 33.8301C37.3585 34.1168 36.9702 34.2941 36.5395 34.2941C36.5271 34.2941 36.5146 34.2941 36.5022 34.2941C36.5005 34.2941 36.5005 34.2941 36.4987 34.2941C36.0661 34.2941 35.6761 34.1168 35.3925 33.8301C35.0947 33.5506 34.9086 33.1546 34.9086 32.7121C34.9086 32.7013 34.9086 32.6906 34.9086 32.6816V32.6834C34.9103 32.2409 35.0947 31.8413 35.3907 31.56C35.6691 31.259 36.0644 31.0727 36.5022 31.0709H36.5306C36.9667 31.0709 37.3602 31.259 37.635 31.5583L37.6368 31.56C37.9204 31.8467 38.0959 32.2427 38.0959 32.6798L38.0977 32.6834ZM2.75482 35.4766H2.7885C3.52418 35.4766 4.18896 35.1685 4.66405 34.6722C5.15686 34.183 5.46355 33.5022 5.46355 32.7497C5.46355 32.73 5.46355 32.7085 5.46355 32.6888V32.6924C5.46355 32.6816 5.46355 32.6709 5.46355 32.6583C5.46355 31.913 5.15686 31.2411 4.66582 30.7628C4.19073 30.2665 3.52595 29.9565 2.79027 29.9565C2.77786 29.9565 2.76545 29.9565 2.75305 29.9565H2.75482C2.73709 29.9565 2.71759 29.9565 2.69809 29.9565C1.95355 29.9565 1.27991 30.2647 0.797727 30.7628C0.306682 31.2429 0 31.9148 0 32.6583V32.696V32.6942V32.7515C0 33.504 0.304909 34.1848 0.797727 34.6722C1.28168 35.1685 1.95355 35.4766 2.69632 35.4766H2.75836H2.75482ZM2.75482 34.3031C2.74418 34.3031 2.73177 34.3031 2.71936 34.3031C2.28859 34.3031 1.90036 34.1257 1.62027 33.839C1.33664 33.556 1.16114 33.1636 1.16114 32.7282C1.16114 32.7157 1.16114 32.7031 1.16114 32.6906C1.16114 32.6888 1.16114 32.6888 1.16114 32.687C1.16114 32.2498 1.33664 31.8557 1.62027 31.569C1.89682 31.268 2.28859 31.0799 2.72645 31.0799H2.75659C3.19445 31.0817 3.588 31.268 3.86632 31.5672C4.16414 31.8485 4.3485 32.248 4.35027 32.6906V32.7193C4.35027 33.16 4.16414 33.5578 3.86809 33.8355L3.86632 33.8373C3.58268 34.1203 3.19445 34.2941 2.76545 34.2941C2.76191 34.2941 2.75836 34.2941 2.75482 34.2941V34.3031ZM19.6312 5.52176H19.6897C20.4342 5.52176 21.1061 5.21359 21.59 4.71551C22.0829 4.23534 22.3895 3.56346 22.3895 2.81813C22.3895 2.80559 22.3895 2.79484 22.3895 2.7823V2.78409C22.3895 2.76617 22.3895 2.74646 22.3895 2.72496C22.3895 1.97246 22.0846 1.29342 21.5918 0.804297C21.1079 0.306214 20.436 -0.00195312 19.6915 -0.00195312C19.6702 -0.00195312 19.6507 -0.00195312 19.6294 -0.00195312H19.633C19.6223 -0.00195312 19.6117 -0.00195312 19.5993 -0.00195312C18.8618 -0.00195312 18.197 0.308005 17.7237 0.804297C17.2309 1.29342 16.926 1.97246 16.926 2.72496V2.78767V2.78409V2.81813C16.926 3.56346 17.2327 4.23534 17.7237 4.71371C18.1988 5.21001 18.8636 5.51996 19.5993 5.51996H19.6294H19.6276L19.6312 5.52176ZM19.6312 4.35001C19.6276 4.35001 19.6223 4.35001 19.6188 4.35001C19.1969 4.35001 18.8157 4.17263 18.5445 3.88596C18.2609 3.61184 18.0854 3.22663 18.0854 2.80021C18.0854 2.79484 18.0854 2.79126 18.0854 2.78588C18.0854 2.77513 18.0854 2.76259 18.0854 2.75005C18.0854 2.31467 18.2609 1.9223 18.5445 1.63921C18.8157 1.35255 19.1969 1.17517 19.6188 1.17517H19.633H19.6684C20.0992 1.17517 20.4874 1.35255 20.7675 1.63921C21.0511 1.9223 21.2266 2.31467 21.2266 2.75005V2.78767V2.78588V2.79842C21.2266 3.22484 21.0511 3.61005 20.7675 3.88417C20.4874 4.17263 20.0974 4.35001 19.6666 4.35001C19.6542 4.35001 19.6418 4.35001 19.6312 4.35001ZM20.0673 24.5313C20.0052 24.5618 19.9343 24.5797 19.8581 24.5797C19.8563 24.5797 19.8528 24.5797 19.851 24.5797H19.6294C19.6205 24.5797 19.6099 24.5797 19.5975 24.5797C19.0604 24.5797 18.5746 24.3558 18.2272 23.9938C17.8691 23.6427 17.6475 23.1518 17.6475 22.6071C17.6475 22.5963 17.6475 22.5856 17.6475 22.573V22.5748C17.6475 22.5623 17.6475 22.548 17.6475 22.5336C17.6475 21.9997 17.8709 21.5195 18.2272 21.1827L18.229 21.1809C18.58 20.8333 19.0621 20.6183 19.594 20.6183H19.633H19.6684C20.1329 20.6183 20.5583 20.785 20.8916 21.0609L20.888 21.0591C21.2213 21.3243 21.4606 21.6951 21.5617 22.1215L21.5635 22.1341V22.1538C21.5635 22.2326 21.5723 22.3097 21.5883 22.3849L21.5865 22.3778C21.6025 22.4369 21.6113 22.5032 21.6113 22.573V22.6107C21.6113 23.0801 21.4465 23.5101 21.1735 23.8469L21.1752 23.8433C20.9005 24.1873 20.5175 24.4346 20.0779 24.5278L20.0655 24.5295L20.0673 24.5313Z" fill="#D8D8D8"/>
</g>
<defs>
<clipPath id="clip0_1514_336">
<rect width="39" height="43" fill="white"/>
</clipPath>
</defs>
</svg>
