<svg width="48" height="48" viewBox="0 0 48 48" fill="none" xmlns="http://www.w3.org/2000/svg">
<path d="M45.2421 13.8627V34.1233C45.2421 35.4381 44.5347 36.6624 43.3979 37.3242L25.8434 47.4601C25.2819 47.7858 24.645 47.9531 23.9947 47.9531C23.3536 47.9531 22.7151 47.7858 22.1535 47.4601L16.2922 43.9923C15.4179 43.5041 15.8445 43.3305 16.1336 43.2303C17.3011 42.8251 17.5373 42.7317 18.7837 42.0244C18.9137 41.95 19.0852 41.9791 19.2194 42.0565L23.7223 44.7302C23.8855 44.8221 24.116 44.8221 24.2661 44.7302L41.822 34.5971C41.9855 34.5037 42.0903 34.3174 42.0903 34.1234V13.8627C42.0903 13.6642 41.9855 13.4789 41.8179 13.3787L24.2692 3.2546C24.1074 3.15991 23.8914 3.15991 23.7284 3.2546L6.1837 13.3815C6.01326 13.479 5.90573 13.6701 5.90573 13.8627V34.1233C5.90573 34.3173 6.01317 34.4991 6.18267 34.5911L10.9919 37.3712C13.6009 38.6746 15.199 37.1382 15.199 35.594V15.5914C15.199 15.3086 15.4261 15.0856 15.7089 15.0856H17.9352C18.2135 15.0856 18.4441 15.3085 18.4441 15.5914V35.5941C18.4441 39.0766 16.547 41.0742 13.2455 41.0742C12.2315 41.0742 11.4317 41.0742 9.20132 39.9761L4.59839 37.3242C3.46092 36.6684 2.75732 35.4382 2.75732 34.1233V13.8627C2.75732 12.5462 3.46092 11.3174 4.59839 10.6625L22.1536 0.518039C23.2646 -0.11018 24.7419 -0.11018 25.8434 0.518039L43.3979 10.6625C44.5347 11.3201 45.2421 12.5462 45.2421 13.8627ZM30.1095 32.1906C24.8708 32.1906 23.7181 30.8736 23.332 28.2685C23.2873 27.9904 23.049 27.7834 22.7636 27.7834H20.2036C19.8866 27.7834 19.6321 28.0368 19.6321 28.3556C19.6321 31.6894 21.4466 35.6654 30.1095 35.6654C36.382 35.6654 39.9785 33.1961 39.9785 28.8832C39.9785 24.6061 37.0885 23.4682 31.0058 22.6629C24.8578 21.8494 24.233 21.4304 24.233 19.9903C24.233 18.8033 24.762 17.2171 29.3158 17.2171C33.3821 17.2171 34.8812 18.0935 35.4976 20.8336C35.5519 21.0919 35.7867 21.2803 36.0529 21.2803H38.6225C38.7819 21.2803 38.9333 21.2119 39.0416 21.0981C39.1501 20.9781 39.2078 20.8219 39.1926 20.658C38.795 15.9351 35.657 13.7351 29.3157 13.7351C23.6711 13.7351 20.3046 16.1177 20.3046 20.1103C20.3046 24.4431 23.6542 25.6415 29.0702 26.1761C35.5519 26.8119 36.055 27.7589 36.055 29.0344C36.055 31.2468 34.2799 32.1906 30.1095 32.1906Z" fill="#D8D8D8"/>
</svg>
