<svg width="50" height="50" viewBox="0 0 50 50" fill="none" xmlns="http://www.w3.org/2000/svg">
<path d="M35.1992 2.10156C33.6992 2.10156 32.3985 2.39844 31.1992 2.69922C33.3008 3.59766 34.6016 4.69922 35.3008 5.19922C36.9024 6.59766 37.8008 8 39.4024 10.3008C39.6992 10.8008 40.1992 11.5 40.5 12.5977C40.8008 13.5977 40.8008 14.3984 40.8008 15.1992C40.8008 16.3008 40.6992 17.1992 40.5977 18.0977C40.5 18.8008 40.5 19.1016 40.4024 19.3008C40.4024 19.4023 40.4024 19.5 40.3008 19.6992C40.3008 20.1992 40.3008 20.4023 40.4024 20.8008C40.4024 21.1992 40.5 21.6016 40.5 22.3008C40.6016 23.6016 40.6016 24.5 40.4024 25.5977V26C40.1992 26.8984 40 27.8008 39.5 28.5977C39.6016 28.8008 39.6992 28.8984 39.8008 29.0977C40.3008 28.3984 40.6992 27.6992 41.0977 26.9023C42.3008 24.6992 43 22.8008 43.5 21.4023C44.3985 18.8008 44.8985 16.8984 45.1992 15.5C45.8985 12.5 46 11.1016 45.6992 9.5C45.6992 9 45.5 8.09766 45 7.19922C43.8985 5.19922 42.1992 4.30078 41 3.69922C40.1992 3.30078 38.0977 2.19922 35.1992 2.10156ZM13.5352 2.54297C12.3828 2.51953 10.9766 2.64844 9.39846 3.39844C8.89846 3.60156 7.39846 4.30078 6.19924 5.89844C5.39846 6.89844 4.80081 8.39844 4.50002 10.0977C4.19924 11.5977 4.09768 13.4023 4.69924 16.8008C5.09768 19.1992 5.50002 20.8008 6.30081 24.0977C6.40237 24.5 7.00002 26.3008 8.30081 30.3008L8.39846 30.5C8.60159 31.1992 9.19924 32.6992 10.5 34.1992C11.3985 35.1992 12.1992 35.8008 12.9024 35.8008H13.0977C14.3985 35.8008 15.3008 34.8008 16.0977 34C16.0977 33.8984 18 31.6016 18.6992 30.8008C18.5977 30.6992 18.4024 30.6992 18.3008 30.5977C17.1016 29.8984 16.1992 28.8008 15.5 27.5977C14.3008 25.3984 14.3985 23.1992 14.5977 22.0977L14.6992 20.4023C14.3008 17.6992 14.4024 15.1016 14.9024 12.5C15.3008 10.3008 15.8008 8.10156 17.5977 5.80078C18.1992 5 18.8985 4.30078 19.5977 3.80078C18 3.10156 16.3008 2.69922 14.5977 2.60156C14.2735 2.57422 13.918 2.55078 13.5352 2.54297ZM26.0977 3.39844C25.5977 3.39844 25.0977 3.39844 24.5977 3.5C22.5977 3.89844 20.6992 5 19.1992 6.89844C17.6992 8.80078 17.3008 10.5977 16.9024 12.6992C16.6992 13.5 16.6992 14.1992 16.5977 15C17.1992 14.5 18 13.8984 19.1992 13.5977C19.8985 13.3984 21.6992 12.8008 23.1992 13.6992C23.6992 14 24.3985 14.6016 25.0977 16.3008C26.5977 20.5 25.1016 24.8008 24.9024 25.1992C24.8008 25.5977 24.6016 25.8984 24.5 26.0977C24.3008 26.5977 24.1016 27 23.9024 27.8008C23.8008 28.5 23.6992 29.1016 23.6992 29.8008C24 29.8008 24.3008 29.8984 24.5977 30.0977C25.0977 30.5977 25.1992 31.3008 25.3008 31.5977C25.5 33.1992 25.5 35.1992 25.5 37.1992C25.5 38.8008 25.5 40.3008 25.5977 41.3008C25.8008 43.6016 26.5 45.1992 27.5 46C28.1992 46.6016 29.0977 46.5977 29.5977 46.6992H29.8008C31.3008 46.6992 33.6992 45.6992 34.5977 44.3008C35.0977 43.5 35.3008 42.8008 35.5 41.8008C35.6016 41.1992 35.5977 40.9023 35.6992 40.3008C35.6992 40 35.8008 39.5 35.8008 38.9023C35.8008 38.4023 35.8985 37.8008 36 37.0977C36.1016 35.3984 36.3985 33.4023 36.5 32.3008C36.6016 31 37.1992 29.8984 37.6992 29.1992C37 29.0977 36.3008 28.5 35.9024 27.5C35.3008 26.3984 35.1992 26.0977 35.0977 25.5977C35 25.1992 34.8008 24.6992 34.0977 23.1992C32.5977 19.8008 32.4024 18.8008 32.4024 18C32.3008 16.8984 32.1992 15.4023 33.4024 14.4023C35.1992 12.8008 37.5 12.9023 38.6992 13.3008V13.0977C38.5 12.3008 38.1016 11.6992 37.8008 11.3008C36.3008 9 35.5 7.80078 34.0977 6.60156C33.5 6.10156 32 4.89844 29.8008 4.10156C28.8008 3.80078 27.5977 3.39844 26.0977 3.39844ZM37.1524 15.125C36.4258 15.0742 35.5 15.1992 34.6992 15.9023C34.3008 16.3008 34.3008 17.1016 34.4024 17.8008C34.4024 18.3008 34.5 19 36 22.4023C36.6992 24 36.8985 24.5 37 24.9023C37.1016 25.3008 37.1992 25.5 37.8008 26.5977C37.9024 26.8008 38 27 38.1992 27.1992C38.3985 26.8984 38.5 26.3984 38.5977 25.5977L38.6992 25.3008C38.8985 24.4023 38.8008 23.6992 38.8008 22.5C38.8008 21.8984 38.6992 21.5 38.6992 21.1992C38.5977 20.6992 38.5977 20.3008 38.5977 19.6992C38.3985 19.3984 38.3985 19.3008 38.5 19.0977C38.5 18.8984 38.5977 18.6016 38.6992 18C38.8008 17.1992 38.9024 16.5 38.9024 15.6992C38.6992 15.5977 38.6016 15.5 38.4024 15.4023C38.4024 15.4023 37.875 15.1758 37.1524 15.125ZM21.5156 15.5195C20.8789 15.4453 20.1485 15.6523 19.6992 15.8008C18.5977 16.1016 17.9024 16.8008 17.4024 17.1992C17.1016 17.5 16.8008 17.8008 16.5 18.1992C16.5 18.8984 16.5977 19.6016 16.6992 20.3008V20.4023L16.5 22.4023C16.3008 23.3008 16.1992 25 17.1992 26.6992C17.6992 27.6992 18.4024 28.5 19.3008 29C19.9024 29.3984 20.6992 29.6992 21.5977 29.9023C21.5977 29.1992 21.6992 28.3984 21.8008 27.6992C22 26.6992 22.1992 26.1992 22.5 25.5977C22.6016 25.3008 22.6992 25.1016 22.9024 24.8008C23 24.5 24.3985 20.6992 23.0977 17.1992C22.8008 16.3984 22.5 15.8984 22.0977 15.6992C21.9258 15.5977 21.7227 15.543 21.5156 15.5195ZM36.1875 16.0898C36.4492 16.0742 36.6992 16.0977 36.8008 16.1992C37.1016 16.3984 36.6992 16.8984 36.5977 17C36.5 17.1016 36.3008 17.3008 36 17.4023C35.6016 17.5 35.3008 17.1992 35.1992 17.1992C35.0977 17.0977 34.8008 16.8008 34.9024 16.5C35 16.3008 35.1016 16.3008 35.5 16.1992C35.6485 16.1484 35.9258 16.1016 36.1875 16.0898ZM21.1563 16.918C21.4922 16.8945 21.7735 17.0234 22 17.0977C22.3008 17.1992 22.5977 17.3008 22.5977 17.5C22.6992 17.8008 22.4024 18 22.3008 18.0977C22 18.3984 21.5 18.4023 21.5 18.4023C21 18.4023 20.6992 18.1016 20.5 17.8008C20.3985 17.6992 20.3008 17.5 20.4024 17.3008C20.5 17.1016 20.6992 17 20.8008 17C20.9258 16.9492 21.043 16.9258 21.1563 16.918ZM39.5 30C39 30.6992 38.3008 31.6016 38.1992 32.8008C38.1992 33 38.1992 33.1016 38.0977 33.3008C38.8985 33.5 39.6016 33.5 40.3008 33.4023C41.9024 33.1992 43 32.3984 43.1992 32.1992C43.8985 31.6992 44.8008 30.6992 44.5977 30.3008C44.5 30.1016 44.1992 30.1992 42.5977 30.3008C42.1992 30.3008 41 30.6016 40.1992 30.4023H40C39.8008 30.3008 39.6016 30.1992 39.5 30ZM22.0977 32C21.8985 32.3008 21.6016 32.5 21.4024 32.6992C20.6016 33.1992 19.5977 33.6016 18.5977 33.8008C17.6992 34.1016 17.1992 34.1016 17.1992 34.4023C17.0977 34.8008 18.0977 35.3008 18.5977 35.5C20.3008 36.1992 22 35.8008 22.3008 35.6992C22.5 35.5977 23 35.3984 23.5 35.0977C23.5 34 23.4024 33 23.3008 32.1992V32.0977H23.1992C22.8985 32.0977 22.5 32.1016 22.0977 32Z" fill="#D8D8D8"/>
</svg>
