<svg width="46" height="46" viewBox="0 0 46 46" fill="none" xmlns="http://www.w3.org/2000/svg">
<path d="M26.8508 22.9652C26.8508 20.9033 25.1268 19.2314 22.9998 19.2314C20.8732 19.2314 19.1489 20.9033 19.1489 22.9652C19.1489 25.0274 20.8732 26.6991 22.9998 26.6991C25.1268 26.6991 26.8508 25.0274 26.8508 22.9652Z" fill="#D8D8D8"/>
<path fill-rule="evenodd" clip-rule="evenodd" d="M35.5068 16.0334C36.32 12.8294 37.3422 6.88775 33.7387 4.87335C30.152 2.86774 25.4846 6.71087 23.02 9.01769C20.5626 6.73385 15.7641 2.90716 12.1636 4.92795C8.5783 6.94029 9.68392 12.7834 10.5152 16.0076C7.1707 16.9286 1.4375 18.9123 1.4375 22.9654C1.4375 27.0069 7.16473 29.1651 10.4894 30.0853C9.65508 33.3273 8.60482 39.0869 12.1947 41.0948C15.8086 43.1152 20.5922 39.3796 23.0796 37.0475C25.56 39.3679 30.1826 43.128 33.77 41.1145C37.3687 39.0947 36.4314 33.2327 35.6001 29.9898C38.823 29.0677 44.5625 26.9564 44.5625 22.9654C44.5625 18.9513 38.7986 16.9514 35.5068 16.0334ZM35.0983 28.2713C34.5525 26.596 33.8158 24.8146 32.9146 22.9743C33.7748 21.1774 34.4829 19.4189 35.0135 17.7544C37.4266 18.4328 42.7203 19.9831 42.7203 22.9654C42.7203 25.9756 37.6404 27.5406 35.0983 28.2713ZM32.8469 39.5686C30.1702 41.0708 26.1943 37.475 24.3625 35.7663C25.5777 34.4776 26.7921 32.9794 27.9773 31.3158C30.0623 31.1365 32.0318 30.8433 33.8181 30.4429C34.4031 32.7368 35.5353 38.0597 32.8469 39.5686ZM13.1152 39.5472C10.4383 38.0506 11.6618 32.911 12.2756 30.5229C14.042 30.9018 15.9974 31.1743 18.0872 31.3386C19.2802 32.9665 20.5298 34.4628 21.7891 35.7732C20.2332 37.2324 15.8046 41.0507 13.1152 39.5472ZM3.27964 22.9654C3.27964 19.9439 8.54173 18.4047 11.0099 17.7281C11.5496 19.43 12.2575 21.2094 13.1118 23.0089C12.2464 24.8351 11.5284 26.6428 10.9837 28.3647C8.6303 27.7115 3.27964 25.9887 3.27964 22.9654ZM13.0866 6.47384C15.7744 4.96535 19.9449 8.63913 21.7291 10.2927C20.4763 11.5971 19.2382 13.0821 18.0554 14.7006C16.0273 14.8829 14.0857 15.1755 12.3008 15.5677C11.6312 12.9673 10.4016 7.9807 13.0866 6.47384ZM29.2952 16.6421C30.6712 16.8104 31.9895 17.0344 33.2274 17.3084C32.8558 18.4632 32.3926 19.6709 31.8471 20.9089C31.0563 19.4541 30.2075 18.0285 29.2952 16.6421ZM23.0206 11.5691C23.8703 12.4616 24.7213 13.4583 25.5585 14.5396C23.8603 14.4617 22.1595 14.4614 20.4614 14.5384C21.2993 13.4672 22.1576 12.472 23.0206 11.5691ZM14.1687 20.9076C13.6322 19.6739 13.1732 18.4609 12.7984 17.2895C14.0288 17.0226 15.341 16.8044 16.7081 16.6388C15.7932 18.0222 14.9458 19.4472 14.1687 20.9076ZM16.7473 29.4194C15.3351 29.2666 14.0031 29.0595 12.773 28.7999C13.1538 27.6079 13.6229 26.3688 14.1708 25.1085C14.9586 26.5841 15.819 28.0229 16.7473 29.4194ZM23.0716 34.4878C22.1985 33.5742 21.3275 32.5638 20.4769 31.4771C22.1846 31.5421 23.8957 31.5422 25.6033 31.4683C24.7635 32.5749 23.9155 33.5868 23.0716 34.4878ZM31.8646 25.0444C32.4411 26.3183 32.9269 27.5507 33.3129 28.7225C32.0624 28.9993 30.7125 29.2221 29.2901 29.3875C30.2091 27.9748 31.0714 26.527 31.8646 25.0444ZM26.9492 29.604C24.337 29.785 21.7085 29.783 19.0955 29.6188C17.6107 27.5159 16.2889 25.3043 15.1479 23.0083C16.2834 20.7171 17.5956 18.5098 19.0733 16.4102C21.6883 16.2186 24.3193 16.218 26.9343 16.4114C28.3994 18.5108 29.7095 20.7124 30.8713 22.9829C29.7233 25.273 28.4043 27.4847 26.9492 29.604ZM32.8186 6.42074C35.5071 7.92427 34.3104 13.2642 33.723 15.5862C31.9339 15.1859 29.991 14.888 27.9569 14.7029C26.7719 13.0669 25.5441 11.5793 24.3116 10.2918C26.1187 8.60259 30.156 4.9319 32.8186 6.42074Z" fill="#D8D8D8"/>
</svg>
