<svg width="40" height="40" viewBox="0 0 40 40" fill="none" xmlns="http://www.w3.org/2000/svg">
<g clip-path="url(#clip0_1514_330)">
<path d="M38.75 40H1.25C0.56 40 0 39.44 0 38.75V1.25C0 0.56 0.56 0 1.25 0H38.75C39.44 0 40 0.56 40 1.25V38.75C40 39.44 39.44 40 38.75 40ZM2.5 37.5H37.5V2.5H2.5V37.5Z" fill="#D8D8D8"/>
<path d="M22.0532 20.8335H9.55322C8.86322 20.8335 8.30322 20.2735 8.30322 19.5835C8.30322 18.8935 8.86322 18.3335 9.55322 18.3335H22.0532C22.7432 18.3335 23.3032 18.8935 23.3032 19.5835C23.3032 20.2735 22.7432 20.8335 22.0532 20.8335Z" fill="#D8D8D8"/>
<path d="M15.8032 36.6668C15.1132 36.6668 14.5532 36.1068 14.5532 35.4168V19.6902C14.5532 19.0002 15.1132 18.4402 15.8032 18.4402C16.4932 18.4402 17.0532 19.0002 17.0532 19.6902V35.4168C17.0532 36.1068 16.4932 36.6668 15.8032 36.6668ZM30.4166 36.6668C28.2682 36.6668 26.3016 35.6635 25.2832 34.0518C24.9149 33.4668 25.0899 32.6968 25.6732 32.3268C26.2549 31.9602 27.0282 32.1335 27.3966 32.7168C27.9516 33.5968 29.1366 34.1668 30.4149 34.1668C32.2216 34.1668 33.7482 33.0218 33.7482 31.6668C33.7482 30.4402 32.5049 29.4402 30.0516 28.6968C26.5266 27.6252 24.5832 25.7218 24.5832 23.3335C24.5832 20.5768 27.1999 18.3335 30.4166 18.3335C31.5449 18.3335 32.6399 18.6085 33.5832 19.1302C34.1882 19.4618 34.4082 20.2235 34.0732 20.8285C33.7416 21.4335 32.9799 21.6535 32.3749 21.3185C31.8016 21.0035 31.1232 20.8352 30.4166 20.8352C28.6099 20.8352 27.0832 21.9802 27.0832 23.3352C27.0832 24.9435 29.3999 25.8868 30.7799 26.3052C35.3016 27.6768 36.2499 29.9785 36.2499 31.6685C36.2499 34.4235 33.6332 36.6668 30.4166 36.6668Z" fill="#D8D8D8"/>
</g>
<defs>
<clipPath id="clip0_1514_330">
<rect width="40" height="40" fill="white"/>
</clipPath>
</defs>
</svg>
